<?xml version="1.0" encoding="utf-8"?>
<!-- Generator: Adobe Illustrator 21.0.2, SVG Export Plug-In . SVG Version: 6.00 Build 0)  -->
<svg version="1.1" id="Capa_1" xmlns="http://www.w3.org/2000/svg" xmlns:xlink="http://www.w3.org/1999/xlink" x="0px" y="0px"
	 viewBox="0 0 30 30" enable-background="new 0 0 30 30" xml:space="preserve">
<g>
	<g>
		<defs>
			<rect id="SVGID_1_" y="-0.06" width="30" height="30.12"/>
		</defs>
		<clipPath id="SVGID_2_">
			<use xlink:href="#SVGID_1_"  overflow="visible"/>
		</clipPath>
		<path clip-path="url(#SVGID_2_)" d="M15.015-0.09C6.723-0.09,0,6.633,0,14.925C0,23.217,6.723,29.94,15.015,29.94
			c8.292,0,15.015-6.723,15.015-15.015C30.03,6.633,23.307-0.09,15.015-0.09L15.015-0.09z M15.015,5.184l8.885,5.541H6.13
			L15.015,5.184z M24.011,19.572H24.01c0,0.889-0.72,1.609-1.609,1.609H7.629c-0.889,0-1.609-0.72-1.609-1.609v-8.495
			c0-0.094,0.01-0.185,0.025-0.275l8.489,5.294c0.01,0.006,0.022,0.011,0.032,0.017c0.011,0.006,0.023,0.012,0.034,0.018
			c0.06,0.031,0.122,0.056,0.185,0.072c0.007,0.002,0.013,0.003,0.02,0.005c0.069,0.016,0.14,0.026,0.21,0.026h0.002
			c0.07,0,0.14-0.01,0.21-0.026c0.006-0.002,0.013-0.003,0.02-0.005c0.063-0.016,0.125-0.041,0.185-0.072
			c0.011-0.006,0.023-0.012,0.034-0.018c0.01-0.006,0.022-0.01,0.032-0.017l8.489-5.294c0.016,0.09,0.026,0.181,0.026,0.275V19.572z
			 M24.011,19.572"/>
	</g>
</g>
</svg>
