<?xml version="1.0" encoding="utf-8"?>
<!-- Generator: Adobe Illustrator 21.0.2, SVG Export Plug-In . SVG Version: 6.00 Build 0)  -->
<svg version="1.1" id="Capa_1" xmlns="http://www.w3.org/2000/svg" xmlns:xlink="http://www.w3.org/1999/xlink" x="0px" y="0px"
	 viewBox="0 0 30 30" enable-background="new 0 0 30 30" xml:space="preserve">
<g>
	<g>
		<defs>
			<rect id="SVGID_1_" width="30" height="30.12"/>
		</defs>
		<clipPath id="SVGID_2_">
			<use xlink:href="#SVGID_1_"  overflow="visible"/>
		</clipPath>
		<path clip-path="url(#SVGID_2_)" d="M15.015-0.03C6.723-0.03,0,6.693,0,14.985C0,23.277,6.723,30,15.015,30
			c8.292,0,15.015-6.723,15.015-15.015C30.03,6.693,23.307-0.03,15.015-0.03L15.015-0.03z M24.011,19.632"/>
	</g>
</g>
<g>
	<path fill="#FFFFFF" d="M15.572,6.642c-3.763,0-6.824,3.061-6.824,6.824c0,1.594,0.55,3.062,1.469,4.225l5.354,6.732l5.354-6.732
		c0.92-1.163,1.469-2.631,1.469-4.225C22.396,9.703,19.335,6.642,15.572,6.642L15.572,6.642z M15.572,16.446
		c-1.694,0-3.071-1.378-3.071-3.071c0-1.694,1.378-3.071,3.071-3.071c1.694,0,3.071,1.378,3.071,3.071
		C18.644,15.068,17.266,16.446,15.572,16.446L15.572,16.446z M15.572,16.446"/>
</g>
</svg>
