<?xml version="1.0" encoding="utf-8"?>
<!-- Generator: Adobe Illustrator 21.0.2, SVG Export Plug-In . SVG Version: 6.00 Build 0)  -->
<svg version="1.1" id="Capa_1" xmlns="http://www.w3.org/2000/svg" xmlns:xlink="http://www.w3.org/1999/xlink" x="0px" y="0px"
	 viewBox="0 0 43 43" enable-background="new 0 0 43 43" xml:space="preserve">
<circle fill="#004E1E" cx="21.5" cy="21.5" r="21.5"/>
<g>
	<path fill="#FFFFFF" d="M30.474,16.957c-0.123-1.201-0.583-2.262-1.475-3.114c-0.938-0.896-2.086-1.291-3.345-1.358
		c-2.144-0.116-7.235-0.191-9.023,0.101c-2.042,0.333-3.382,1.525-3.947,3.543c-0.435,1.552-0.348,8.706-0.095,10.241
		c0.346,2.098,1.586,3.443,3.665,3.979c1.439,0.371,8.511,0.324,10.098,0.067c2.099-0.339,3.45-1.573,3.996-3.648
		C30.765,25.174,30.619,18.394,30.474,16.957z M28.794,26.073c-0.244,1.594-1.302,2.58-2.904,2.756
		c-1.472,0.161-8.043,0.25-9.408-0.132c-1.306-0.365-2.052-1.262-2.269-2.577c-0.207-1.255-0.259-7.528-0.003-9.206
		c0.24-1.58,1.298-2.566,2.891-2.744c1.616-0.181,7.432-0.201,8.98,0.037c1.59,0.243,2.576,1.303,2.75,2.908
		C28.995,18.612,29.041,24.464,28.794,26.073z M21.502,16.822c-2.586-0.001-4.679,2.093-4.677,4.682
		c0.001,2.577,2.088,4.667,4.666,4.672c2.588,0.006,4.688-2.086,4.689-4.672C26.181,18.914,24.09,16.822,21.502,16.822z
		 M21.469,24.524c-1.649-0.003-2.993-1.366-2.992-3.037c0.001-1.669,1.355-3.013,3.036-3.013c1.668,0.001,3.014,1.356,3.014,3.036
		C24.525,23.187,23.168,24.526,21.469,24.524z M27.454,16.647c-0.001,0.608-0.486,1.09-1.096,1.09s-1.09-0.479-1.095-1.089
		c-0.004-0.616,0.487-1.106,1.106-1.101C26.975,15.55,27.456,16.039,27.454,16.647z"/>
</g>
<path fill-rule="evenodd" clip-rule="evenodd" fill="#FFFFFF" d="M80.761,14.544c0.651-0.022,1.301-0.005,1.953-0.007
	c0.08,0,0.159,0,0.268,0v-3.384c-0.347-0.035-0.711-0.084-1.075-0.102c-0.667-0.029-1.335-0.063-2.004-0.048
	c-1.02,0.022-1.984,0.27-2.827,0.875c-0.967,0.695-1.498,1.672-1.699,2.825c-0.084,0.476-0.106,0.968-0.118,1.452
	c-0.019,0.76-0.004,1.519-0.003,2.279v0.285h-3.238v3.78h3.219V32h3.934v-9.485h3.209c0.165-1.258,0.325-2.502,0.493-3.799
	c-0.258,0-0.49-0.001-0.721,0c-0.912,0.004-3.007,0-3.007,0s0.009-1.873,0.032-2.686C79.208,14.916,79.869,14.576,80.761,14.544z"/>
<path fill-rule="evenodd" clip-rule="evenodd" fill="#FFFFFF" d="M73.673,25.972c-2.077-0.072-3.375-1.563-3.719-2.774
	c0.578,0.11,1.147,0.088,1.714-0.051c0.014-0.004,0.029-0.014,0.057-0.027c-1.124-0.261-1.992-0.864-2.596-1.834
	c-0.4-0.646-0.591-1.35-0.585-2.126c0.562,0.3,1.148,0.468,1.779,0.484c-0.846-0.609-1.413-1.405-1.645-2.424
	c-0.23-1.016-0.081-1.984,0.428-2.895c2.165,2.549,4.904,3.946,8.244,4.176c-0.023-0.158-0.048-0.297-0.064-0.437
	c-0.11-0.94,0.076-1.818,0.583-2.613c0.636-0.997,1.545-1.618,2.711-1.807c1.344-0.22,2.517,0.163,3.499,1.114
	c0.066,0.064,0.121,0.085,0.214,0.064c0.82-0.179,1.595-0.474,2.324-0.894c0.017-0.01,0.035-0.02,0.053-0.027
	c0.003-0.002,0.01-0.002,0.026-0.002c-0.316,0.929-0.892,1.646-1.711,2.175c0.774-0.084,1.513-0.29,2.225-0.599
	c0.007,0.007,0.012,0.012,0.017,0.017c-0.153,0.2-0.3,0.405-0.459,0.6c-0.424,0.522-0.911,0.982-1.453,1.38
	c-0.046,0.035-0.068,0.067-0.066,0.126c0.022,0.593-0.001,1.186-0.074,1.774c-0.154,1.243-0.5,2.427-1.03,3.559
	c-0.547,1.168-1.262,2.223-2.16,3.151c-1.522,1.573-3.357,2.588-5.493,3.06c-0.731,0.161-1.475,0.243-2.226,0.264
	c-2.305,0.069-4.435-0.505-6.396-1.716c-0.025-0.014-0.05-0.033-0.094-0.061c1.395,0.151,2.721-0.029,3.998-0.552
	C72.45,26.804,73.078,26.439,73.673,25.972z"/>
</svg>
