<?xml version="1.0" encoding="utf-8"?>
<!-- Generator: Adobe Illustrator 21.0.2, SVG Export Plug-In . SVG Version: 6.00 Build 0)  -->
<svg version="1.1" id="Capa_1" xmlns="http://www.w3.org/2000/svg" xmlns:xlink="http://www.w3.org/1999/xlink" x="0px" y="0px"
	 viewBox="0 0 43 43" enable-background="new 0 0 43 43" xml:space="preserve">
<circle fill="#004E1E" cx="21.5" cy="21.5" r="21.5"/>
<path fill-rule="evenodd" clip-rule="evenodd" fill="#FFFFFF" d="M80.761,14.544c0.651-0.022,1.301-0.005,1.953-0.007
	c0.08,0,0.159,0,0.268,0v-3.384c-0.347-0.035-0.711-0.084-1.075-0.102c-0.667-0.029-1.335-0.063-2.004-0.048
	c-1.02,0.022-1.984,0.27-2.827,0.875c-0.967,0.695-1.498,1.672-1.699,2.825c-0.084,0.476-0.106,0.968-0.118,1.452
	c-0.019,0.76-0.004,1.519-0.003,2.279v0.285h-3.238v3.78h3.219V32h3.934v-9.485h3.209c0.165-1.258,0.325-2.502,0.493-3.799
	c-0.258,0-0.49-0.001-0.721,0c-0.912,0.004-3.007,0-3.007,0s0.009-1.873,0.032-2.686C79.208,14.916,79.869,14.576,80.761,14.544z"/>
<path fill-rule="evenodd" clip-rule="evenodd" fill="#FFFFFF" d="M17.673,25.972c-2.077-0.072-3.375-1.563-3.719-2.774
	c0.578,0.11,1.147,0.088,1.714-0.051c0.014-0.004,0.029-0.014,0.057-0.027c-1.124-0.261-1.992-0.864-2.596-1.834
	c-0.4-0.646-0.591-1.35-0.585-2.126c0.562,0.3,1.148,0.468,1.779,0.484c-0.846-0.609-1.413-1.405-1.645-2.424
	c-0.23-1.016-0.081-1.984,0.428-2.895c2.165,2.549,4.904,3.946,8.244,4.176c-0.023-0.158-0.048-0.297-0.064-0.437
	c-0.11-0.94,0.076-1.818,0.583-2.613c0.636-0.997,1.545-1.618,2.711-1.807c1.344-0.22,2.517,0.163,3.499,1.114
	c0.066,0.064,0.121,0.085,0.214,0.064c0.82-0.179,1.595-0.474,2.324-0.894c0.017-0.01,0.035-0.02,0.053-0.027
	c0.003-0.002,0.01-0.002,0.026-0.002c-0.316,0.929-0.892,1.646-1.711,2.175c0.774-0.084,1.513-0.29,2.225-0.599
	c0.007,0.007,0.012,0.012,0.017,0.017c-0.153,0.2-0.3,0.405-0.459,0.6c-0.424,0.522-0.911,0.982-1.453,1.38
	c-0.046,0.035-0.068,0.067-0.066,0.126c0.022,0.593-0.001,1.186-0.074,1.774c-0.154,1.243-0.5,2.427-1.03,3.559
	c-0.547,1.168-1.262,2.223-2.16,3.151c-1.522,1.573-3.357,2.588-5.493,3.06c-0.731,0.161-1.475,0.243-2.226,0.264
	c-2.305,0.069-4.435-0.505-6.396-1.716c-0.025-0.014-0.05-0.033-0.094-0.061c1.395,0.151,2.721-0.029,3.998-0.552
	C16.45,26.804,17.078,26.439,17.673,25.972z"/>
</svg>
