<?xml version="1.0" encoding="utf-8"?>
<!-- Generator: Adobe Illustrator 21.0.2, SVG Export Plug-In . SVG Version: 6.00 Build 0)  -->
<svg version="1.1" id="Capa_1" xmlns="http://www.w3.org/2000/svg" xmlns:xlink="http://www.w3.org/1999/xlink" x="0px" y="0px"
	 viewBox="0 0 43 43" enable-background="new 0 0 43 43" xml:space="preserve">
<circle fill="#004E1E" cx="21.5" cy="21.5" r="21.5"/>
<path fill-rule="evenodd" clip-rule="evenodd" fill="#FFFFFF" d="M24.761,14.544c0.651-0.022,1.301-0.005,1.953-0.007
	c0.08,0,0.159,0,0.268,0v-3.384c-0.347-0.035-0.711-0.084-1.075-0.102c-0.667-0.029-1.335-0.063-2.004-0.048
	c-1.02,0.022-1.984,0.27-2.827,0.875c-0.967,0.695-1.498,1.672-1.699,2.825c-0.084,0.476-0.106,0.968-0.118,1.452
	c-0.019,0.76-0.004,1.519-0.003,2.279v0.285h-3.238v3.78h3.219V32h3.934v-9.485h3.209c0.165-1.258,0.325-2.502,0.493-3.799
	c-0.258,0-0.49-0.001-0.721,0c-0.912,0.004-3.007,0-3.007,0s0.009-1.873,0.032-2.686C23.208,14.916,23.869,14.576,24.761,14.544z"/>
</svg>
