<?xml version="1.0" encoding="utf-8"?>
<!-- Generator: Adobe Illustrator 21.0.2, SVG Export Plug-In . SVG Version: 6.00 Build 0)  -->
<svg version="1.1" id="Capa_1" xmlns="http://www.w3.org/2000/svg" xmlns:xlink="http://www.w3.org/1999/xlink" x="0px" y="0px"
	 viewBox="0 0 30 30" enable-background="new 0 0 30 30" xml:space="preserve">
<g>
	<circle cx="15" cy="15" r="15"/>
	<g>
		<g>
			<defs>
				<rect id="SVGID_1_" x="6.779" y="6.428" width="16.785" height="16.787"/>
			</defs>
			<clipPath id="SVGID_2_">
				<use xlink:href="#SVGID_1_"  overflow="visible"/>
			</clipPath>
			<path clip-path="url(#SVGID_2_)" fill="#FFFFFF" d="M23.539,19.652c0.035,0.272-0.047,0.509-0.249,0.71l-2.361,2.343
				c-0.107,0.118-0.246,0.219-0.417,0.302c-0.172,0.083-0.34,0.136-0.506,0.16c-0.012,0-0.047,0.003-0.107,0.009
				c-0.059,0.006-0.136,0.009-0.231,0.009c-0.225,0-0.589-0.039-1.092-0.115c-0.503-0.077-1.118-0.266-1.846-0.568
				c-0.728-0.302-1.553-0.754-2.476-1.358c-0.923-0.603-1.905-1.432-2.947-2.485c-0.828-0.817-1.515-1.598-2.059-2.343
				c-0.544-0.746-0.982-1.435-1.314-2.068c-0.331-0.633-0.58-1.207-0.746-1.722c-0.166-0.515-0.278-0.959-0.337-1.331
				c-0.059-0.373-0.083-0.666-0.071-0.879c0.012-0.213,0.018-0.331,0.018-0.355c0.024-0.166,0.077-0.334,0.16-0.506
				c0.083-0.172,0.183-0.311,0.302-0.417l2.361-2.361C9.788,6.51,9.977,6.428,10.19,6.428c0.154,0,0.29,0.044,0.408,0.133
				c0.118,0.089,0.219,0.198,0.302,0.328l1.899,3.603c0.106,0.189,0.136,0.397,0.089,0.621c-0.047,0.225-0.148,0.414-0.302,0.568
				l-0.87,0.87c-0.024,0.024-0.044,0.062-0.062,0.115c-0.018,0.053-0.027,0.098-0.027,0.133c0.047,0.249,0.154,0.533,0.32,0.852
				c0.142,0.284,0.361,0.63,0.657,1.039c0.296,0.408,0.716,0.879,1.26,1.411c0.533,0.544,1.006,0.967,1.42,1.269
				c0.414,0.302,0.76,0.524,1.038,0.666c0.278,0.142,0.491,0.228,0.639,0.257l0.222,0.044c0.024,0,0.062-0.009,0.115-0.027
				c0.053-0.018,0.092-0.038,0.115-0.062l1.012-1.03c0.213-0.189,0.462-0.284,0.746-0.284c0.201,0,0.361,0.036,0.479,0.107h0.018
				l3.426,2.024C23.344,19.22,23.491,19.415,23.539,19.652L23.539,19.652z M23.539,19.652"/>
		</g>
	</g>
</g>
</svg>
